HIERARCHY
ROOT Hips
{
	OFFSET -21.947001 39.810204 44.525997
	CHANNELS 6 Xposition Yposition Zposition Zrotation Xrotation Yrotation
	JOINT Chest
	{
		OFFSET -0.201599 0.334099 6.453201
		CHANNELS 6 Xposition Yposition Zposition Zrotation Xrotation Yrotation
		JOINT Chest2
		{
			OFFSET 0.000000 0.000000 3.568001
			CHANNELS 6 Xposition Yposition Zposition Zrotation Xrotation Yrotation
			JOINT Neck
			{
				OFFSET 0.000000 0.000000 8.296402
				CHANNELS 6 Xposition Yposition Zposition Zrotation Xrotation Yrotation
				JOINT Head
				{
					OFFSET 0.000000 0.000000 2.173901
					CHANNELS 6 Xposition Yposition Zposition Zrotation Xrotation Yrotation
					End Site
					{
						OFFSET 0.000000 0.000000 7.891998
					}
				}
			}
			JOINT LeftCollar
			{
				OFFSET 1.927601 0.221401 6.049000
				CHANNELS 6 Xposition Yposition Zposition Zrotation Xrotation Yrotation
				JOINT LeftShoulder
				{
					OFFSET 4.959700 0.000000 0.000000
					CHANNELS 6 Xposition Yposition Zposition Zrotation Xrotation Yrotation
					JOINT LeftElbow
					{
						OFFSET 0.000000 0.000000 -8.654202
						CHANNELS 6 Xposition Yposition Zposition Zrotation Xrotation Yrotation
						JOINT LeftWrist
						{
							OFFSET 0.000000 0.000000 -13.864101
							CHANNELS 6 Xposition Yposition Zposition Zrotation Xrotation Yrotation
							End Site
							{
								OFFSET 0.000000 0.000000 -2.173901
							}
						}
					}
				}
			}
			JOINT RightCollar
			{
				OFFSET -3.155701 -0.764999 6.687801
				CHANNELS 6 Xposition Yposition Zposition Zrotation Xrotation Yrotation
				JOINT RightShoulder
				{
					OFFSET -3.592899 0.000000 0.000000
					CHANNELS 6 Xposition Yposition Zposition Zrotation Xrotation Yrotation
					JOINT RightElbow
					{
						OFFSET 0.000000 0.000000 -10.352398
						CHANNELS 6 Xposition Yposition Zposition Zrotation Xrotation Yrotation
						JOINT RightWrist
						{
							OFFSET 0.000000 0.000000 -12.750301
							CHANNELS 6 Xposition Yposition Zposition Zrotation Xrotation Yrotation
							End Site
							{
								OFFSET 0.000000 0.000000 -2.173901
							}
						}
					}
				}
			}
		}
	}
	JOINT LeftHip
	{
		OFFSET 2.460600 -0.518101 -2.735500
		CHANNELS 6 Xposition Yposition Zposition Zrotation Xrotation Yrotation
		JOINT LeftKnee
		{
			OFFSET 0.000000 -0.000004 -17.005899
			CHANNELS 6 Xposition Yposition Zposition Zrotation Xrotation Yrotation
			JOINT LeftAnkle
			{
				OFFSET 0.000000 0.000000 -19.194401
				CHANNELS 6 Xposition Yposition Zposition Zrotation Xrotation Yrotation
				End Site
				{
					OFFSET 0.000000 -8.134600 0.000000
				}
			}
		}
	}
	JOINT RightHip
	{
		OFFSET -3.115499 -0.679600 -2.320301
		CHANNELS 6 Xposition Yposition Zposition Zrotation Xrotation Yrotation
		JOINT RightKnee
		{
			OFFSET 0.000000 -0.000004 -17.680401
			CHANNELS 6 Xposition Yposition Zposition Zrotation Xrotation Yrotation
			JOINT RightAnkle
			{
				OFFSET 0.000000 0.000000 -16.993797
				CHANNELS 6 Xposition Yposition Zposition Zrotation Xrotation Yrotation
				End Site
				{
					OFFSET 0.000000 -8.842300 0.000000
				}
			}
		}
	}
}
MOTION
Frames: 8
Frame Time: 0.041667
-8.293997 10.429903 16.764191 2457.007667 10.394521 -3.500836 -0.201598 0.334096 6.453202 1.818176 8.268505 0.022301 -0.000000 0.000006 3.568000 -0.456137 -6.391532 -1.090195 0.000001 0.000001 8.296396 148.771642 -159.840128 180.642138 0.000002 -0.000001 2.173906 -1.603549 -0.854861 -4.380208 1.927598 0.221403 6.048999 -15.832230 -2.973532 3.361618 4.959699 0.000000 -0.000001 191.981168 139.253965 149.152945 -0.000002 -0.000003 -8.654198 -15.848657 -40.528563 20.857046 0.000003 -0.000001 -13.864103 4185.399167 -156.009676 167.400246 -3.155700 -0.765000 6.687801 33.679885 0.620228 -1.026303 -3.592898 0.000001 0.000008 -151.368918 203.597448 250.197042 -0.000002 -0.000002 -10.352390 -259.099046 -77.268093 -202.770134 -0.000001 0.000004 -12.750302 114.928520 4.130740 -21.754243 2.460599 -0.518103 -2.735505 -272.806334 -33.001702 64.454412 -0.000003 0.000000 -17.005901 19.204909 188.225096 -30.865734 -0.000002 0.000003 -19.194403 585.607415 138.117435 231.544478 -3.115494 -0.679605 -2.320302 -498.445404 -9.951817 -129.807827 -0.000005 -0.000008 -17.680399 -385.141964 201.302026 -306.610170 0.000001 0.000001 -16.993788 1006.439303 29.380199 -417.204839
-8.301999 10.447006 16.759596 2457.071488 10.299745 -3.508921 -0.201599 0.334102 6.453208 1.710229 8.390624 0.051448 0.000001 0.000004 3.568004 -0.434002 -6.411543 -1.089825 -0.000002 -0.000006 8.296397 148.760646 -159.797221 180.652780 0.000001 -0.000001 2.173904 -1.564457 -0.898932 -4.400995 1.927602 0.221406 6.048998 -15.848009 -2.967842 3.344291 4.959699 0.000000 0.000002 191.984446 139.305820 149.079288 -0.000003 -0.000001 -8.654194 -15.824336 -40.545697 20.916934 0.000001 0.000001 -13.864098 4185.421461 -155.869835 167.491251 -3.155698 -0.764999 6.687801 33.645116 0.603141 -1.042245 -3.592906 0.000000 -0.000002 -151.278486 203.513778 250.223434 -0.000002 -0.000002 -10.352395 -259.593579 -77.302654 -203.085908 -0.000001 0.000001 -12.750299 114.673139 4.035870 -21.697605 2.460600 -0.518106 -2.735501 -272.944468 -33.085406 64.338101 -0.000001 -0.000002 -17.005899 19.191064 188.441299 -30.869477 -0.000004 0.000002 -19.194397 585.113018 138.791534 233.716560 -3.115494 -0.679600 -2.320301 -498.461304 -10.055118 -129.742093 -0.000003 -0.000007 -17.680393 -385.208380 201.315755 -306.609541 0.000005 -0.000003 -16.993792 1006.346084 29.367010 -417.252404
-8.311296 10.465500 16.752602 2457.147986 10.205538 -3.535726 -0.201600 0.334102 6.453198 1.559291 8.507822 0.110192 0.000000 0.000004 3.567998 -0.403426 -6.437114 -1.088622 0.000003 -0.000001 8.296402 148.779210 -159.780938 180.648586 0.000000 0.000004 2.173899 -1.551556 -0.935558 -4.419612 1.927603 0.221406 6.048999 -15.875743 -2.950130 3.366595 4.959699 0.000005 -0.000002 192.058622 139.359655 148.925936 0.000001 0.000001 -8.654194 -15.749438 -40.557462 21.026015 0.000000 0.000000 -13.864101 4185.305621 -155.905242 167.437866 -3.155703 -0.765000 6.687804 33.615486 0.594486 -1.138705 -3.592904 0.000003 0.000007 -151.159572 203.419931 250.336323 -0.000005 -0.000004 -10.352396 -259.871377 -77.356571 -203.272304 0.000005 0.000002 -12.750296 114.566397 4.018671 -21.727696 2.460595 -0.518099 -2.735506 -273.065280 -33.139675 64.245675 -0.000004 -0.000004 -17.005898 19.206518 188.441395 -30.878056 -0.000003 0.000001 -19.194405 585.061054 138.771112 233.974550 -3.115495 -0.679596 -2.320299 -498.486986 -10.157325 -129.699746 -0.000003 -0.000007 -17.680403 -385.251055 201.299964 -306.621453 0.000005 -0.000001 -16.993790 1006.272318 29.344224 -417.309122
-8.321698 10.486809 16.745592 2457.216835 10.144604 -3.529914 -0.201597 0.334101 6.453205 1.475049 8.586203 0.150061 0.000001 0.000002 3.568000 -0.436458 -6.457887 -1.093537 0.000001 -0.000002 8.296399 148.806367 -159.781839 180.628014 -0.000001 0.000000 2.173908 -1.555473 -0.958409 -4.443876 1.927601 0.221399 6.049003 -15.903276 -2.870158 3.430012 4.959699 0.000002 -0.000003 192.103510 139.447273 148.731795 -0.000001 -0.000003 -8.654200 -15.605994 -40.558841 21.165441 0.000000 0.000001 -13.864095 4185.248356 -155.858715 167.420805 -3.155701 -0.765001 6.687798 33.628201 0.620383 -1.403161 -3.592901 -0.000006 0.000003 -151.021124 203.316481 250.617782 -0.000006 -0.000002 -10.352392 -260.008636 -77.412510 -203.358828 0.000002 -0.000001 -12.750308 114.516345 4.015313 -21.631421 2.460596 -0.518101 -2.735505 -273.162706 -33.244095 64.196975 -0.000003 -0.000005 -17.005898 19.224418 188.275189 -31.040006 -0.000001 0.000002 -19.194403 584.960678 138.197512 233.588180 -3.115499 -0.679603 -2.320307 -498.505892 -10.234052 -129.666702 -0.000004 -0.000008 -17.680397 -385.317281 201.272479 -306.648036 0.000002 0.000002 -16.993792 1006.200847 29.313635 -417.356769
-8.339499 10.519009 16.737999 2457.292677 10.121101 -3.418755 -0.201600 0.334102 6.453203 1.232182 8.632236 0.060676 0.000001 0.000001 3.567996 -0.396400 -6.478345 -1.090117 -0.000001 -0.000005 8.296400 148.985660 -159.761417 180.634789 -0.000002 0.000002 2.173898 -1.481527 -1.045593 -4.456118 1.927599 0.221402 6.049000 -15.828729 -2.896454 3.550020 4.959701 0.000002 0.000005 192.068922 139.334985 148.547380 0.000000 -0.000000 -8.654195 -15.325534 -40.580162 21.301157 0.000004 -0.000000 -13.864094 4185.236117 -155.758926 167.502316 -3.155705 -0.765000 6.687799 33.726381 0.760686 -1.545177 -3.592903 -0.000008 0.000002 -150.860519 203.356943 250.878367 -0.000001 -0.000001 -10.352392 -259.960005 -77.496624 -203.285240 -0.000001 0.000002 -12.750303 114.533420 3.992715 -21.390366 2.460599 -0.518103 -2.735502 -273.122162 -33.386436 64.253632 -0.000003 -0.000009 -17.005901 19.158783 188.185290 -31.166956 -0.000004 0.000001 -19.194403 584.920188 137.718771 233.287297 -3.115497 -0.679605 -2.320299 -498.545725 -10.367186 -129.625202 -0.000002 -0.000006 -17.680401 -385.482681 201.128949 -306.670740 0.000004 -0.000002 -16.993793 1006.171887 29.281444 -417.406684
-8.354502 10.550001 16.731794 2457.317156 10.145116 -3.310686 -0.201600 0.334099 6.453203 1.326797 8.675254 -0.063898 0.000001 -0.000000 3.568001 -0.490789 -6.518709 -1.107993 -0.000002 0.000002 8.296398 149.047323 -159.646260 180.683051 -0.000002 0.000004 2.173906 -1.456823 -1.047441 -4.467167 1.927603 0.221403 6.049001 -15.941086 -2.784281 3.738647 4.959699 -0.000001 0.000001 192.057160 139.317609 148.318760 -0.000002 -0.000003 -8.654196 -15.221266 -40.732858 21.336782 0.000004 -0.000006 -13.864096 4185.346711 -155.730198 167.716238 -3.155704 -0.765000 6.687804 33.628867 0.743292 -1.617719 -3.592901 0.000000 0.000004 -150.785565 203.377844 250.975028 -0.000004 -0.000004 -10.352397 -260.335420 -77.450541 -203.737658 0.000003 0.000007 -12.750311 114.372672 3.932711 -21.084873 2.460600 -0.518100 -2.735503 -273.015283 -33.524437 64.359110 -0.000004 0.000003 -17.005898 19.074953 188.125471 -31.286778 -0.000003 0.000001 -19.194405 584.772602 137.598887 234.113640 -3.115497 -0.679605 -2.320302 -498.553539 -10.486012 -129.628043 -0.000008 -0.000006 -17.680393 -385.662069 200.974997 -306.696640 0.000005 -0.000002 -16.993793 1006.148063 29.241269 -417.475205
-8.362500 10.575907 16.727100 2457.259892 10.234557 -3.240832 -0.201599 0.334098 6.453198 1.284575 8.700536 -0.181198 0.000002 -0.000000 3.568003 -0.445716 -6.571326 -1.113698 -0.000001 -0.000004 8.296400 149.193639 -159.446518 180.781829 -0.000001 -0.000000 2.173897 -1.460515 -0.981035 -4.463049 1.927602 0.221404 6.048998 -15.988175 -2.779164 3.860268 4.959700 0.000004 -0.000005 192.116282 139.330135 148.204149 0.000000 -0.000002 -8.654197 -15.308897 -40.711373 21.308355 0.000002 0.000000 -13.864100 4185.379059 -155.765059 167.623839 -3.155701 -0.765000 6.687798 33.576513 0.833924 -1.436362 -3.592906 -0.000004 -0.000008 -150.666378 203.539118 250.949811 -0.000009 -0.000002 -10.352390 -261.378253 -77.362937 -204.817593 0.000004 -0.000004 -12.750307 114.017263 3.854774 -21.078001 2.460601 -0.518107 -2.735503 -272.837808 -33.636527 64.521874 -0.000006 -0.000009 -17.005898 19.045550 188.006667 -31.404486 -0.000003 0.000004 -19.194403 584.721348 137.383504 234.703905 -3.115497 -0.679603 -2.320307 -498.488953 -10.537684 -129.683641 -0.000007 -0.000010 -17.680397 -385.791323 200.833735 -306.714535 0.000004 -0.000001 -16.993793 1006.134512 29.210451 -417.508482
-8.374795 10.606903 16.726994 2457.198038 10.327848 -3.157636 -0.201599 0.334098 6.453197 1.274104 8.737093 -0.284126 0.000000 0.000003 3.567999 -0.464004 -6.615431 -1.124694 -0.000002 -0.000002 8.296393 149.357017 -159.240246 180.838356 -0.000000 -0.000001 2.173898 -1.251588 -1.073721 -4.462394 1.927600 0.221402 6.049002 -15.993236 -2.727692 3.961578 4.959702 0.000001 -0.000001 192.069605 139.291845 148.110398 -0.000002 0.000002 -8.654200 -15.287551 -40.722551 21.310463 0.000001 -0.000001 -13.864098 4185.419275 -155.857472 167.603895 -3.155702 -0.765000 6.687799 33.590075 0.981005 -1.379234 -3.592900 0.000002 0.000004 -150.516141 203.726552 251.145837 0.000000 -0.000005 -10.352396 -261.755935 -77.386494 -205.261419 0.000000 -0.000001 -12.750303 113.951092 3.772195 -20.866139 2.460596 -0.518102 -2.735503 -272.518319 -33.647209 64.725673 -0.000006 -0.000004 -17.005899 18.935721 187.987734 -31.538631 -0.000004 0.000004 -19.194399 584.734790 137.224812 235.416950 -3.115493 -0.679601 -2.320304 -498.444365 -10.660436 -129.725496 -0.000004 -0.000010 -17.680405 -385.997650 200.669537 -306.712186 0.000007 -0.000001 -16.993793 1006.133091 29.179261 -417.514192
